# xmcd CD database file
#
# Track frame offsets:
#	150
#	15105
#	26850
#	43640
#	59047
#	76292
#	92052
#	107575
#	125860
#	140977
#
# Disc length: 2055 seconds
#
# Revision: 1
# Processed by: cddbd v1.5.2PL0 Copyright (c) Steve Scherf et al.
# Submitted via: CDex 1.70beta2
#
DISCID=8908050a
DTITLE=McBride, Martina - USA - The Way That I Am
DYEAR=1993
DGENRE=Country
TTITLE0=Heart Trouble
TTITLE1=My Baby Loves Me
TTITLE2=That Wasn't Me
TTITLE3=Independence Day
TTITLE4=Where I Used To Have A Heart
TTITLE5=Goin' To Work
TTITLE6=She Ain't Seen Nothing Yet
TTITLE7=Life #9
TTITLE8=Strangers
TTITLE9=Ashes
EXTD=YEAR: 1993
EXTT0=
EXTT1=
EXTT2=
EXTT3=
EXTT4=
EXTT5=
EXTT6=
EXTT7=
EXTT8=
EXTT9=
PLAYORDER=
